<mxfile host="app.diagrams.net" modified="2024-03-15T08:11:22.885Z" agent="Mozilla/5.0 (Windows NT 10.0; Win64; x64) AppleWebKit/537.36 (KHTML, like Gecko) Chrome/120.0.0.0 YaBrowser/24.1.0.0 Safari/537.36" etag="epLZVUw-RSTWQC6qiUn9" version="24.0.7" type="github">
  <diagram name="Страница — 1" id="J-FUJwieqvFvrQke8nMZ">
    <mxGraphModel dx="2213" dy="767" grid="1" gridSize="10" guides="1" tooltips="1" connect="1" arrows="1" fold="1" page="1" pageScale="1" pageWidth="827" pageHeight="1169" math="0" shadow="0">
      <root>
        <mxCell id="0" />
        <mxCell id="1" parent="0" />
        <mxCell id="CD-NU-aooo0uRlj2dTa9-5" value="" style="edgeStyle=orthogonalEdgeStyle;rounded=0;orthogonalLoop=1;jettySize=auto;html=1;" edge="1" parent="1" source="K71xzrgT9czLvtcj1BbU-2" target="CD-NU-aooo0uRlj2dTa9-4">
          <mxGeometry relative="1" as="geometry" />
        </mxCell>
        <mxCell id="K71xzrgT9czLvtcj1BbU-2" value="&amp;nbsp;вводиться значение numbers&lt;div&gt;words&lt;/div&gt;" style="rounded=0;whiteSpace=wrap;html=1;" parent="1" vertex="1">
          <mxGeometry x="64.5" y="20" width="160" height="80" as="geometry" />
        </mxCell>
        <mxCell id="CD-NU-aooo0uRlj2dTa9-6" style="edgeStyle=orthogonalEdgeStyle;rounded=0;orthogonalLoop=1;jettySize=auto;html=1;entryX=0.5;entryY=0;entryDx=0;entryDy=0;" edge="1" parent="1" source="K71xzrgT9czLvtcj1BbU-3" target="K71xzrgT9czLvtcj1BbU-4">
          <mxGeometry relative="1" as="geometry" />
        </mxCell>
        <mxCell id="CD-NU-aooo0uRlj2dTa9-14" value="" style="edgeStyle=orthogonalEdgeStyle;rounded=0;orthogonalLoop=1;jettySize=auto;html=1;" edge="1" parent="1" source="K71xzrgT9czLvtcj1BbU-3" target="CD-NU-aooo0uRlj2dTa9-13">
          <mxGeometry relative="1" as="geometry" />
        </mxCell>
        <mxCell id="K71xzrgT9czLvtcj1BbU-3" value="Далее применяем фильтр к&amp;nbsp; numbers&lt;div&gt;через search&amp;nbsp;&lt;br&gt;&lt;div&gt;result1 = search(*numbers, ff=is_even)&lt;br&gt;&lt;/div&gt;&lt;/div&gt;" style="rounded=0;whiteSpace=wrap;html=1;" parent="1" vertex="1">
          <mxGeometry x="-155.5" y="140" width="216" height="100" as="geometry" />
        </mxCell>
        <mxCell id="K71xzrgT9czLvtcj1BbU-4" value="Объявляем функцию&lt;div&gt;def search(*args, ff):&amp;nbsp;&lt;/div&gt;" style="rounded=0;whiteSpace=wrap;html=1;" parent="1" vertex="1">
          <mxGeometry x="35" y="320" width="220" height="97.35" as="geometry" />
        </mxCell>
        <mxCell id="CD-NU-aooo0uRlj2dTa9-3" value="" style="edgeStyle=orthogonalEdgeStyle;rounded=0;orthogonalLoop=1;jettySize=auto;html=1;" edge="1" parent="1" source="K71xzrgT9czLvtcj1BbU-5" target="CD-NU-aooo0uRlj2dTa9-2">
          <mxGeometry relative="1" as="geometry" />
        </mxCell>
        <mxCell id="K71xzrgT9czLvtcj1BbU-5" value="&lt;div&gt;Проверяем все ли введенные числа целые:&lt;/div&gt;&lt;div&gt;if all(isinstance(arg, int) for arg in args):&amp;nbsp;&lt;/div&gt;" style="rounded=0;whiteSpace=wrap;html=1;" parent="1" vertex="1">
          <mxGeometry x="252.99999999999997" y="450" width="169" height="100" as="geometry" />
        </mxCell>
        <mxCell id="CD-NU-aooo0uRlj2dTa9-9" value="" style="edgeStyle=orthogonalEdgeStyle;rounded=0;orthogonalLoop=1;jettySize=auto;html=1;" edge="1" parent="1" source="K71xzrgT9czLvtcj1BbU-6" target="CD-NU-aooo0uRlj2dTa9-8">
          <mxGeometry relative="1" as="geometry" />
        </mxCell>
        <mxCell id="K71xzrgT9czLvtcj1BbU-6" value="Если введенные данные слова&lt;div&gt;elif all(isinstance(arg, str) for arg in args):&lt;br&gt;&lt;/div&gt;" style="rounded=0;whiteSpace=wrap;html=1;" parent="1" vertex="1">
          <mxGeometry x="-150" y="460" width="205" height="100" as="geometry" />
        </mxCell>
        <mxCell id="K71xzrgT9czLvtcj1BbU-12" value="" style="endArrow=classic;html=1;rounded=0;exitX=0.5;exitY=1;exitDx=0;exitDy=0;entryX=0.5;entryY=0;entryDx=0;entryDy=0;" parent="1" source="K71xzrgT9czLvtcj1BbU-2" target="K71xzrgT9czLvtcj1BbU-3" edge="1">
          <mxGeometry width="50" height="50" relative="1" as="geometry">
            <mxPoint x="410" y="290" as="sourcePoint" />
            <mxPoint x="460" y="240" as="targetPoint" />
          </mxGeometry>
        </mxCell>
        <mxCell id="K71xzrgT9czLvtcj1BbU-14" value="" style="endArrow=classic;html=1;rounded=0;exitX=0.5;exitY=1;exitDx=0;exitDy=0;entryX=0.5;entryY=0;entryDx=0;entryDy=0;" parent="1" source="K71xzrgT9czLvtcj1BbU-4" target="K71xzrgT9czLvtcj1BbU-5" edge="1">
          <mxGeometry width="50" height="50" relative="1" as="geometry">
            <mxPoint x="150" y="270" as="sourcePoint" />
            <mxPoint x="152" y="330" as="targetPoint" />
          </mxGeometry>
        </mxCell>
        <mxCell id="CD-NU-aooo0uRlj2dTa9-1" style="edgeStyle=orthogonalEdgeStyle;rounded=0;orthogonalLoop=1;jettySize=auto;html=1;entryX=0.7;entryY=-0.03;entryDx=0;entryDy=0;entryPerimeter=0;" edge="1" parent="1" source="K71xzrgT9czLvtcj1BbU-4" target="K71xzrgT9czLvtcj1BbU-6">
          <mxGeometry relative="1" as="geometry" />
        </mxCell>
        <mxCell id="CD-NU-aooo0uRlj2dTa9-11" style="edgeStyle=orthogonalEdgeStyle;rounded=0;orthogonalLoop=1;jettySize=auto;html=1;entryX=0;entryY=0.5;entryDx=0;entryDy=0;" edge="1" parent="1" source="CD-NU-aooo0uRlj2dTa9-2" target="K71xzrgT9czLvtcj1BbU-3">
          <mxGeometry relative="1" as="geometry">
            <Array as="points">
              <mxPoint x="338" y="960" />
              <mxPoint x="-175" y="960" />
              <mxPoint x="-175" y="190" />
            </Array>
          </mxGeometry>
        </mxCell>
        <mxCell id="CD-NU-aooo0uRlj2dTa9-2" value="&lt;div&gt;Применяем фильтр к числам и добавляем в кортеж:&amp;nbsp;&lt;/div&gt;return tuple(filter(ff, args))" style="whiteSpace=wrap;html=1;rounded=0;" vertex="1" parent="1">
          <mxGeometry x="226.25" y="650" width="222.5" height="200" as="geometry" />
        </mxCell>
        <mxCell id="CD-NU-aooo0uRlj2dTa9-7" style="edgeStyle=orthogonalEdgeStyle;rounded=0;orthogonalLoop=1;jettySize=auto;html=1;entryX=0.5;entryY=0;entryDx=0;entryDy=0;" edge="1" parent="1" source="CD-NU-aooo0uRlj2dTa9-4" target="K71xzrgT9czLvtcj1BbU-4">
          <mxGeometry relative="1" as="geometry" />
        </mxCell>
        <mxCell id="CD-NU-aooo0uRlj2dTa9-16" value="" style="edgeStyle=orthogonalEdgeStyle;rounded=0;orthogonalLoop=1;jettySize=auto;html=1;" edge="1" parent="1" source="CD-NU-aooo0uRlj2dTa9-4" target="CD-NU-aooo0uRlj2dTa9-15">
          <mxGeometry relative="1" as="geometry" />
        </mxCell>
        <mxCell id="CD-NU-aooo0uRlj2dTa9-4" value="Далее применяем фильтр к&amp;nbsp; words&lt;div&gt;через search&amp;nbsp;&lt;br&gt;&lt;div&gt;result2 = search(*words, ff=starts_with_capital)&lt;br&gt;&lt;/div&gt;&lt;/div&gt;" style="whiteSpace=wrap;html=1;rounded=0;" vertex="1" parent="1">
          <mxGeometry x="250" y="150" width="275" height="80" as="geometry" />
        </mxCell>
        <mxCell id="CD-NU-aooo0uRlj2dTa9-10" style="edgeStyle=orthogonalEdgeStyle;rounded=0;orthogonalLoop=1;jettySize=auto;html=1;entryX=1;entryY=0.5;entryDx=0;entryDy=0;" edge="1" parent="1" source="CD-NU-aooo0uRlj2dTa9-8" target="CD-NU-aooo0uRlj2dTa9-4">
          <mxGeometry relative="1" as="geometry">
            <Array as="points">
              <mxPoint x="-47" y="920" />
              <mxPoint x="545" y="920" />
              <mxPoint x="545" y="190" />
            </Array>
          </mxGeometry>
        </mxCell>
        <mxCell id="CD-NU-aooo0uRlj2dTa9-8" value="Применяем фильтр к словам&lt;div&gt;и добавляем в кортеж&lt;/div&gt;&lt;div&gt;return tuple(arg for arg in args if arg[0].isupper())&lt;br&gt;&lt;/div&gt;" style="whiteSpace=wrap;html=1;rounded=0;" vertex="1" parent="1">
          <mxGeometry x="-178.12" y="640" width="261.25" height="130" as="geometry" />
        </mxCell>
        <mxCell id="CD-NU-aooo0uRlj2dTa9-13" value="Выводим кортеж с четными числами&lt;div&gt;print(result1)&amp;nbsp;&lt;/div&gt;" style="whiteSpace=wrap;html=1;rounded=0;" vertex="1" parent="1">
          <mxGeometry x="-403.5" y="160" width="120" height="60" as="geometry" />
        </mxCell>
        <mxCell id="CD-NU-aooo0uRlj2dTa9-15" value="Выводим кортеж со словами начинающихся на заглавную букву&amp;nbsp;&lt;div&gt;print(result2)&amp;nbsp;&lt;/div&gt;" style="whiteSpace=wrap;html=1;rounded=0;" vertex="1" parent="1">
          <mxGeometry x="682.5" y="160" width="127.5" height="90" as="geometry" />
        </mxCell>
      </root>
    </mxGraphModel>
  </diagram>
</mxfile>
